{
  "accessors": [
    {
      "bufferView": 2,
      "componentType": 5126,
      "count": 8708,
      "max": [
        0.13833186030387878,
        0.133883535861969,
        0.20963434875011444
      ],
      "min": [
        -0.13833078742027283,
        -0.14279010891914368,
        -0.20861446857452393
      ],
      "type": "VEC3"
    },
    {
      "bufferView": 2,
      "byteOffset": 104496,
      "componentType": 5126,
      "count": 8708,
      "max": [
        1.0,
        1.0,
        1.0
      ],
      "min": [
        -1.0,
        -1.0,
        -1.0
      ],
      "type": "VEC3"
    },
    {
      "bufferView": 3,
      "componentType": 5126,
      "count": 8708,
      "max": [
        1.0,
        1.0,
        1.0,
        1.0
      ],
      "min": [
        -1.0,
        -1.0,
        -1.0,
        -1.0
      ],
      "type": "VEC4"
    },
    {
      "bufferView": 1,
      "componentType": 5126,
      "count": 8708,
      "max": [
        0.9265682101249695,
        0.99951171875
      ],
      "min": [
        0.00048828125,
        0.00048828125
      ],
      "type": "VEC2"
    },
    {
      "bufferView": 1,
      "byteOffset": 69664,
      "componentType": 5126,
      "count": 8708,
      "max": [
        0.9265682101249695,
        0.99951171875
      ],
      "min": [
        0.00048828125,
        0.00048828125
      ],
      "type": "VEC2"
    },
    {
      "bufferView": 1,
      "byteOffset": 139328,
      "componentType": 5126,
      "count": 8708,
      "max": [
        0.9265682101249695,
        0.99951171875
      ],
      "min": [
        0.00048828125,
        0.00048828125
      ],
      "type": "VEC2"
    },
    {
      "bufferView": 1,
      "byteOffset": 208992,
      "componentType": 5126,
      "count": 8708,
      "max": [
        0.9265682101249695,
        0.99951171875
      ],
      "min": [
        0.00048828125,
        0.00048828125
      ],
      "type": "VEC2"
    },
    {
      "bufferView": 0,
      "componentType": 5125,
      "count": 35124,
      "type": "SCALAR"
    }
  ],
  "asset": {
    "extras": {
      "author": "Zamzam2003 (https://sketchfab.com/Zamzam2003)",
      "license": "CC-BY-4.0 (http://creativecommons.org/licenses/by/4.0/)",
      "source": "https://sketchfab.com/3d-models/table-lamp-02fcc43854994fb0b4c5b4bd847fbd3a",
      "title": "Table Lamp"
    },
    "generator": "Sketchfab-14.49.0",
    "version": "2.0"
  },
  "bufferViews": [
    {
      "buffer": 0,
      "byteLength": 140496,
      "name": "floatBufferViews",
      "target": 34963
    },
    {
      "buffer": 0,
      "byteLength": 278656,
      "byteOffset": 140496,
      "byteStride": 8,
      "name": "floatBufferViews",
      "target": 34962
    },
    {
      "buffer": 0,
      "byteLength": 208992,
      "byteOffset": 419152,
      "byteStride": 12,
      "name": "floatBufferViews",
      "target": 34962
    },
    {
      "buffer": 0,
      "byteLength": 139328,
      "byteOffset": 628144,
      "byteStride": 16,
      "name": "floatBufferViews",
      "target": 34962
    }
  ],
  "buffers": [
    {
      "byteLength": 767472,
      "uri": "scene.bin"
    }
  ],
  "images": [
    {
      "uri": "textures/Table_lamp_baseColor.png"
    },
    {
      "uri": "textures/Table_lamp_metallicRoughness.png"
    },
    {
      "uri": "textures/Table_lamp_emissive.png"
    },
    {
      "uri": "textures/Table_lamp_normal.png"
    }
  ],
  "materials": [
    {
      "doubleSided": true,
      "emissiveFactor": [
        1.0,
        1.0,
        1.0
      ],
      "emissiveTexture": {
        "index": 2
      },
      "name": "Table_lamp",
      "normalTexture": {
        "index": 3
      },
      "pbrMetallicRoughness": {
        "baseColorTexture": {
          "index": 0
        },
        "metallicRoughnessTexture": {
          "index": 1
        }
      }
    }
  ],
  "meshes": [
    {
      "name": "Cylinder.009_low_Table_lamp_0",
      "primitives": [
        {
          "attributes": {
            "NORMAL": 1,
            "POSITION": 0,
            "TANGENT": 2,
            "TEXCOORD_0": 3,
            "TEXCOORD_1": 4,
            "TEXCOORD_2": 5,
            "TEXCOORD_3": 6
          },
          "indices": 7,
          "material": 0,
          "mode": 4
        }
      ]
    }
  ],
  "nodes": [
    {
      "children": [
        1
      ],
      "matrix": [
        1.779802918434143,
        0.0,
        0.0,
        0.0,
        0.0,
        3.95195635868127e-16,
        -1.779802918434143,
        0.0,
        0.0,
        1.779802918434143,
        3.95195635868127e-16,
        0.0,
        0.0,
        0.0,
        0.0,
        1.0
      ],
      "name": "Sketchfab_model"
    },
    {
      "children": [
        2
      ],
      "matrix": [
        0.009999999776482582,
        0.0,
        0.0,
        0.0,
        0.0,
        0.0,
        0.009999999776482582,
        0.0,
        0.0,
        -0.009999999776482582,
        0.0,
        0.0,
        0.0,
        0.0,
        0.0,
        1.0
      ],
      "name": "f5b773001f344c76bb25d58330a1f1dc.fbx"
    },
    {
      "children": [
        3
      ],
      "name": "RootNode"
    },
    {
      "children": [
        4
      ],
      "matrix": [
        100.0,
        0.0,
        0.0,
        0.0,
        -0.0,
        -1.629206793918314e-05,
        -99.99999999999868,
        0.0,
        0.0,
        99.99999999999868,
        -1.629206793918314e-05,
        0.0,
        -242.48257446289063,
        163.28981018066406,
        1091.69482421875,
        1.0
      ],
      "name": "Cylinder.009_low"
    },
    {
      "mesh": 0,
      "name": "Cylinder.009_low_Table_lamp_0"
    }
  ],
  "samplers": [
    {
      "magFilter": 9729,
      "minFilter": 9987,
      "wrapS": 10497,
      "wrapT": 10497
    }
  ],
  "scene": 0,
  "scenes": [
    {
      "name": "Sketchfab_Scene",
      "nodes": [
        0
      ]
    }
  ],
  "textures": [
    {
      "sampler": 0,
      "source": 0
    },
    {
      "sampler": 0,
      "source": 1
    },
    {
      "sampler": 0,
      "source": 2
    },
    {
      "sampler": 0,
      "source": 3
    }
  ]
}
